<svg width="32" height="37" viewBox="0 0 32 37" fill="none" xmlns="http://www.w3.org/2000/svg">
<path d="M17.05 36.6C13.6167 36.6 10.65 35.85 8.15 34.35C5.68333 32.8167 3.76667 30.7 2.4 28C1.03333 25.2667 0.35 22.1 0.35 18.5C0.35 14.9333 1.03333 11.8 2.4 9.1C3.76667 6.36667 5.68333 4.23333 8.15 2.7C10.65 1.16667 13.6167 0.399999 17.05 0.399999C21.05 0.399999 24.3 1.36667 26.8 3.3C29.3333 5.2 30.95 7.86667 31.65 11.3H27C26.4667 9.13333 25.3667 7.4 23.7 6.1C22.0667 4.76667 19.85 4.1 17.05 4.1C14.55 4.1 12.3667 4.68333 10.5 5.85C8.63333 6.98333 7.18333 8.63333 6.15 10.8C5.15 12.9333 4.65 15.5 4.65 18.5C4.65 21.5 5.15 24.0833 6.15 26.25C7.18333 28.3833 8.63333 30.0333 10.5 31.2C12.3667 32.3333 14.55 32.9 17.05 32.9C19.85 32.9 22.0667 32.2667 23.7 31C25.3667 29.7 26.4667 27.9833 27 25.85H31.65C30.95 29.2167 29.3333 31.85 26.8 33.75C24.3 35.65 21.05 36.6 17.05 36.6Z" fill="black"/>
</svg>
