<svg width="20" height="20" viewBox="0 0 20 20" fill="none" xmlns="http://www.w3.org/2000/svg">
<path d="M13.4008 10.6508C14.2995 9.94378 14.9555 8.97419 15.2775 7.87696C15.5994 6.77973 15.5714 5.60942 15.1973 4.52886C14.8232 3.44829 14.1216 2.51121 13.1901 1.84796C12.2586 1.18472 11.1435 0.828308 10 0.828308C8.8565 0.828308 7.74143 1.18472 6.80993 1.84796C5.87843 2.51121 5.17681 3.44829 4.80269 4.52886C4.42857 5.60942 4.40055 6.77973 4.72253 7.87696C5.04451 8.97419 5.70047 9.94378 6.59916 10.6508C5.05923 11.2678 3.71559 12.2911 2.71148 13.6116C1.70737 14.9321 1.08043 16.5004 0.897497 18.1492C0.884255 18.2696 0.894854 18.3914 0.928687 18.5076C0.96252 18.6239 1.01893 18.7324 1.09468 18.8269C1.24768 19.0177 1.47022 19.1399 1.71333 19.1667C1.95645 19.1934 2.20023 19.1225 2.39104 18.9695C2.58186 18.8165 2.70409 18.594 2.73083 18.3508C2.93212 16.5589 3.78654 14.904 5.13086 13.7022C6.47519 12.5005 8.21515 11.8361 10.0183 11.8361C11.8215 11.8361 13.5615 12.5005 14.9058 13.7022C16.2501 14.904 17.1045 16.5589 17.3058 18.3508C17.3308 18.5761 17.4382 18.7841 17.6075 18.9348C17.7768 19.0854 17.9959 19.1681 18.2225 19.1667H18.3233C18.5636 19.139 18.7832 19.0175 18.9343 18.8287C19.0854 18.6398 19.1558 18.3988 19.13 18.1583C18.9462 16.5049 18.3159 14.9326 17.3066 13.61C16.2973 12.2875 14.9472 11.2645 13.4008 10.6508ZM10 10C9.2748 10 8.56589 9.78497 7.96291 9.38207C7.35993 8.97917 6.88996 8.40651 6.61244 7.73652C6.33492 7.06652 6.2623 6.32928 6.40378 5.61802C6.54526 4.90675 6.89448 4.25341 7.40727 3.74062C7.92006 3.22783 8.5734 2.87861 9.28467 2.73713C9.99593 2.59565 10.7332 2.66827 11.4032 2.94579C12.0732 3.22331 12.6458 3.69327 13.0487 4.29626C13.4516 4.89924 13.6667 5.60815 13.6667 6.33335C13.6667 7.30581 13.2804 8.23844 12.5927 8.92607C11.9051 9.6137 10.9725 10 10 10Z" fill="#F5F5F5"/>
</svg>
