<svg width="86" height="92" viewBox="0 0 86 92" fill="none" xmlns="http://www.w3.org/2000/svg">
<rect width="86" height="92" rx="8" fill="#111111"/>
<path d="M25.8 77.9L24.2466 80.4665L24.259 80.474L24.2715 80.4814L25.8 77.9ZM14.1 65.2L11.4167 66.5416L11.42 66.5482L11.4234 66.5548L14.1 65.2ZM64.6 16.3L62.7439 18.6569L62.7602 18.6697L62.7766 18.6822L64.6 16.3ZM74.7 33.8V36.8H78.2776L77.6541 33.2771L74.7 33.8ZM60.6 33.8L57.6751 34.4671L58.2072 36.8H60.6V33.8ZM55 24.9L53.1465 27.259L53.1774 27.2832L53.209 27.3067L55 24.9ZM28.6 64.4L26.2953 66.3206L26.3026 66.3292L26.3098 66.3378L28.6 64.4ZM55 67.9L56.7437 70.3412L56.7544 70.3335L55 67.9ZM60.6 59.4V56.4H58.2365L57.6833 58.6978L60.6 59.4ZM74.7 59.4L77.6498 59.9463L78.3066 56.4H74.7V59.4ZM64.6 76.3L62.7953 73.9036L62.7881 73.909L62.781 73.9144L64.6 76.3ZM44 79.4C37.3632 79.4 31.8476 77.9943 27.3285 75.3186L24.2715 80.4814C29.8858 83.806 36.5035 85.4 44 85.4V79.4ZM27.3534 75.3335C22.7782 72.5643 19.2622 68.7557 16.7766 63.8452L11.4234 66.5548C14.4044 72.4443 18.6885 77.1024 24.2466 80.4665L27.3534 75.3335ZM16.7833 63.8584C14.2904 58.8726 13 53.0453 13 46.3H7C7 53.8214 8.4429 60.5941 11.4167 66.5416L16.7833 63.8584ZM13 46.3C13 39.5547 14.2904 33.7274 16.7833 28.7416L11.4167 26.0584C8.4429 32.0059 7 38.7786 7 46.3H13ZM16.7833 28.7416C19.2718 23.7647 22.7876 19.93 27.3534 17.1665L24.2466 12.0335C18.6791 15.4033 14.3949 20.102 11.4167 26.0584L16.7833 28.7416ZM27.3534 17.1665C31.8681 14.4339 37.3744 13 44 13V7C36.4922 7 29.8653 8.6327 24.2466 12.0335L27.3534 17.1665ZM44 13C51.8904 13 58.0553 14.9646 62.7439 18.6569L66.4561 13.9431C60.478 9.2354 52.9096 7 44 7V13ZM62.7766 18.6822C67.5045 22.3012 70.5258 27.4294 71.7459 34.3228L77.6541 33.2771C76.2075 25.1039 72.4955 18.5655 66.4234 13.9178L62.7766 18.6822ZM74.7 30.8H60.6V36.8H74.7V30.8ZM63.5249 33.1329C62.5149 28.7045 60.2843 25.0929 56.791 22.4933L53.209 27.3067C55.4491 28.9738 56.9518 31.2955 57.6751 34.4671L63.5249 33.1329ZM56.8535 22.541C53.3808 19.8125 48.9291 18.6 43.8 18.6V24.6C48.0042 24.6 51.0192 25.5875 53.1465 27.259L56.8535 22.541ZM43.8 18.6C36.5721 18.6 30.6098 21.1021 26.2953 26.2794L30.9047 30.1206C33.9235 26.4979 38.0945 24.6 43.8 24.6V18.6ZM26.2953 26.2794C22.0471 31.3773 20.1 38.1703 20.1 46.3H26.1C26.1 39.0964 27.8195 33.8228 30.9047 30.1206L26.2953 26.2794ZM20.1 46.3C20.1 54.4297 22.0471 61.2227 26.2953 66.3206L30.9047 62.4794C27.8195 58.7773 26.1 53.5036 26.1 46.3H20.1ZM26.3098 66.3378C30.6296 71.4431 36.5882 73.9 43.8 73.9V67.9C38.0784 67.9 33.9037 66.0236 30.8902 62.4622L26.3098 66.3378ZM43.8 73.9C48.8733 73.9 53.282 72.8139 56.7437 70.3412L53.2563 65.4588C51.118 66.9861 48.06 67.9 43.8 67.9V73.9ZM56.7544 70.3335C60.2326 67.826 62.4908 64.3634 63.5167 60.1022L57.6833 58.6978C56.9759 61.6366 55.5007 63.8407 53.2456 65.4665L56.7544 70.3335ZM60.6 62.4H74.7V56.4H60.6V62.4ZM71.7502 58.8537C70.5412 65.3823 67.5433 70.3279 62.7953 73.9036L66.4047 78.6964C72.4567 74.1388 76.1922 67.8177 77.6498 59.9463L71.7502 58.8537ZM62.781 73.9144C58.0902 77.4911 51.9114 79.4 44 79.4V85.4C52.8886 85.4 60.4431 83.242 66.419 78.6856L62.781 73.9144Z" fill="#F5F5F5"/>
</svg>
