<svg width="119" height="124" viewBox="0 0 119 124" fill="none" xmlns="http://www.w3.org/2000/svg">
<path d="M37.3 95.7L35.7466 98.2665L35.759 98.274L35.7715 98.2814L37.3 95.7ZM25.6 83L22.9167 84.3416L22.92 84.3482L22.9234 84.3548L25.6 83ZM25.6 45.2L22.9167 43.8584L22.9167 43.8584L25.6 45.2ZM37.3 32.4L38.8534 34.9665L37.3 32.4ZM76.1 34.1L74.2439 36.4569L74.2602 36.4697L74.2766 36.4822L76.1 34.1ZM86.2 51.6V54.6H89.7776L89.1541 51.0771L86.2 51.6ZM72.1 51.6L69.1751 52.2671L69.7072 54.6H72.1V51.6ZM66.5 42.7L64.6465 45.059L64.6774 45.0832L64.709 45.1067L66.5 42.7ZM40.1 46L37.7953 44.0794L37.7953 44.0794L40.1 46ZM40.1 82.2L37.7953 84.1206L37.8026 84.1292L37.8098 84.1378L40.1 82.2ZM66.5 85.7L68.2437 88.1412L68.2544 88.1335L66.5 85.7ZM72.1 77.2V74.2H69.7365L69.1833 76.4978L72.1 77.2ZM86.2 77.2L89.1498 77.7463L89.8066 74.2H86.2V77.2ZM76.1 94.1L74.2953 91.7036L74.2881 91.709L74.281 91.7144L76.1 94.1ZM55.5 97.2C48.8632 97.2 43.3476 95.7943 38.8285 93.1186L35.7715 98.2814C41.3858 101.606 48.0035 103.2 55.5 103.2V97.2ZM38.8534 93.1335C34.2782 90.3643 30.7622 86.5557 28.2766 81.6452L22.9234 84.3548C25.9044 90.2443 30.1885 94.9024 35.7466 98.2665L38.8534 93.1335ZM28.2833 81.6584C25.7904 76.6726 24.5 70.8453 24.5 64.1H18.5C18.5 71.6214 19.9429 78.3941 22.9167 84.3416L28.2833 81.6584ZM24.5 64.1C24.5 57.3547 25.7904 51.5274 28.2833 46.5416L22.9167 43.8584C19.9429 49.8059 18.5 56.5786 18.5 64.1H24.5ZM28.2833 46.5416C30.7718 41.5647 34.2876 37.73 38.8534 34.9665L35.7466 29.8335C30.1791 33.2033 25.8949 37.902 22.9167 43.8584L28.2833 46.5416ZM38.8534 34.9665C43.3681 32.2339 48.8744 30.8 55.5 30.8V24.8C47.9922 24.8 41.3653 26.4327 35.7466 29.8335L38.8534 34.9665ZM55.5 30.8C63.3904 30.8 69.5553 32.7646 74.2439 36.4569L77.9561 31.7431C71.978 27.0354 64.4096 24.8 55.5 24.8V30.8ZM74.2766 36.4822C79.0045 40.1012 82.0258 45.2294 83.2459 52.1228L89.1541 51.0771C87.7075 42.9039 83.9955 36.3655 77.9234 31.7178L74.2766 36.4822ZM86.2 48.6H72.1V54.6H86.2V48.6ZM75.0249 50.9329C74.0149 46.5045 71.7843 42.8929 68.291 40.2933L64.709 45.1067C66.9491 46.7738 68.4518 49.0955 69.1751 52.2671L75.0249 50.9329ZM68.3535 40.341C64.8808 37.6125 60.4291 36.4 55.3 36.4V42.4C59.5042 42.4 62.5192 43.3875 64.6465 45.059L68.3535 40.341ZM55.3 36.4C48.0721 36.4 42.1098 38.9021 37.7953 44.0794L42.4047 47.9206C45.4235 44.2979 49.5945 42.4 55.3 42.4V36.4ZM37.7953 44.0794C33.5471 49.1773 31.6 55.9703 31.6 64.1H37.6C37.6 56.8964 39.3195 51.6227 42.4047 47.9205L37.7953 44.0794ZM31.6 64.1C31.6 72.2297 33.5471 79.0227 37.7953 84.1206L42.4047 80.2794C39.3195 76.5773 37.6 71.3036 37.6 64.1H31.6ZM37.8098 84.1378C42.1296 89.2431 48.0882 91.7 55.3 91.7V85.7C49.5784 85.7 45.4037 83.8236 42.3902 80.2622L37.8098 84.1378ZM55.3 91.7C60.3733 91.7 64.782 90.6139 68.2437 88.1412L64.7563 83.2588C62.618 84.7861 59.56 85.7 55.3 85.7V91.7ZM68.2544 88.1335C71.7326 85.626 73.9908 82.1634 75.0167 77.9022L69.1833 76.4978C68.4759 79.4366 67.0007 81.6407 64.7456 83.2665L68.2544 88.1335ZM72.1 80.2H86.2V74.2H72.1V80.2ZM83.2502 76.6537C82.0412 83.1823 79.0433 88.1279 74.2953 91.7036L77.9047 96.4964C83.9567 91.9388 87.6922 85.6177 89.1498 77.7463L83.2502 76.6537ZM74.281 91.7144C69.5902 95.2911 63.4114 97.2 55.5 97.2V103.2C64.3886 103.2 71.9431 101.042 77.919 96.4856L74.281 91.7144Z" fill="#F5F5F5"/>
</svg>
